<?xml version="1.0" encoding="utf-8"?>
<!-- Generator: Adobe Illustrator 22.1.0, SVG Export Plug-In . SVG Version: 6.00 Build 0)  -->
<svg version="1.1" id="圖層_1" xmlns="http://www.w3.org/2000/svg" xmlns:xlink="http://www.w3.org/1999/xlink" x="0px" y="0px"
	 viewBox="0 0 500 500" style="enable-background:new 0 0 500 500;" xml:space="preserve">
<style type="text/css">
	.st0{fill:#FFFFFF;}
</style>
<path class="st0" d="M272.4,214.3h-63.2c-1.5,0-2.7,0.5-3.4,1.5c-1.1,0.7-1.6,1.9-1.6,3.6v21.1c0,7.1-3.7,10.5-10.5,10.5h-13.7
	c-6.8,0-10.5-3.4-10.5-10.5v-120c0-6.8,3.4-10.5,10.5-10.5h13.7c6.8,0,10.5,3.7,10.5,10.5v21.1c0,2.6,1.3,4.2,4.2,4.2h26.3
	c2.6,0,4.2-1.6,4.2-4.2V113c0-24.7-13.4-37.9-37.9-37.9h-29.5c-24.8,0-38.2,13.2-38.2,37.9v134.7c0,24.7,13.4,37.9,38.2,37.9H201
	c1.3,0,2.7,0,3.9-0.1v135.1c0,2.6,1.6,4.2,4.2,4.2h27.4c2.9,0,4.2-1.6,4.2-4.2v-66.3h31.6c24.8,0,37.9-13.4,37.9-37.9v-64.2
	C310.3,227.5,297.1,214.3,272.4,214.3z M274.5,309.1c0,6.6-3.4,10.5-10.5,10.5h-23.2v-70.5h23.2c7.1,0,10.5,3.7,10.5,10.5V309.1z"/>
<g>
	<path class="st0" d="M197.4,297.4c0,2.8-1.1,4.3-3.1,4.3H192c-0.2,0-0.3-0.2-0.3-0.5v-3.1c0-0.3,0.1-0.5,0.3-0.5h1.7
		c0.6,0,0.9-0.4,0.9-1.2V295c0-0.8-0.3-1.2-0.9-1.2h-3L189,301c-0.2,0.5-0.4,0.8-0.8,0.8h-5c-2,0-3.1-1.5-3.1-4.3v-3.4
		c0-2.8,1.1-4.3,3.1-4.3h2.3c0.2,0,0.3,0.2,0.3,0.5v3.1c0,0.3-0.1,0.5-0.3,0.5h-1.7c-0.6,0-0.9,0.5-0.9,1.2v1.4
		c0,0.8,0.3,1.2,0.9,1.2h2.9l1.7-7.1c0.1-0.5,0.4-0.8,0.8-0.8h5.1c2,0,3.1,1.5,3.1,4.3V297.4z"/>
	<path class="st0" d="M195.2,327.1c0,0.3-0.1,0.5-0.3,0.5h-2.2c-0.2,0-0.3-0.2-0.3-0.5v-3.5h-12c-0.2,0-0.3-0.2-0.3-0.5V320
		c0-0.3,0.1-0.5,0.3-0.5h12v-3.5c0-0.3,0.1-0.5,0.3-0.5h2.2c0.2,0,0.3,0.2,0.3,0.5V327.1z"/>
	<path class="st0" d="M195.2,352.9c0,0.3-0.2,0.6-0.4,0.6h-11.6c-2,0-3.1-1.5-3.1-4.3v-3.4c0-2.8,1.1-4.3,3.1-4.3h11.6
		c0.2,0,0.4,0.3,0.4,0.6v2.9c0,0.3-0.2,0.6-0.4,0.6h-11c-0.6,0-0.9,0.4-0.9,1.2v1.6c0,0.8,0.3,1.2,0.9,1.2h11c0.2,0,0.4,0.3,0.4,0.6
		V352.9z"/>
	<path class="st0" d="M194.9,367.9c0.2,0,0.3,0.2,0.3,0.5v7.2c0,2.8-1.1,4.3-3.1,4.3h-8.9c-2,0-3.1-1.5-3.1-4.3v-7.2
		c0-0.3,0.1-0.5,0.3-0.5H194.9z M182.9,374.8c0,0.8,0.3,1.2,0.9,1.2h7.7c0.6,0,0.9-0.4,0.9-1.2V372h-9.4V374.8z"/>
	<path class="st0" d="M180,394.9c0-0.3,0.1-0.5,0.3-0.5h14.5c0.2,0,0.3,0.2,0.3,0.5v3.1c0,0.3-0.1,0.5-0.3,0.5h-14.5
		c-0.2,0-0.3-0.2-0.3-0.5V394.9z"/>
	<path class="st0" d="M192.1,412.9c2,0,3.1,1.5,3.1,4.3v3.4c0,2.8-1.1,4.3-3.1,4.3h-8.9c-2,0-3.1-1.5-3.1-4.3v-3.4
		c0-2.8,1.1-4.3,3.1-4.3H192.1z M182.8,420c0,0.8,0.3,1.2,0.9,1.2h7.8c0.6,0,0.9-0.4,0.9-1.2V418c0-0.8-0.3-1.2-0.9-1.2h-7.8
		c-0.6,0-0.9,0.4-0.9,1.2V420z"/>
</g>
<g>
	<path class="st0" d="M338.6,232.5h7v-9.9h18.9v9.9h7.1v1.7h-33V232.5z M339.5,219.2h31.1v6.1h-3.2v-4.4h-24.6v4.4h-3.2V219.2z
		 M340.5,210.6h13.5v7.3h-13.5V210.6z M346.1,213.6v-1.4h-3v1.4H346.1z M346.1,216.4v-1.5h-3v1.5H346.1z M344.8,201.6h20.7v7.7
		h-20.7V201.6z M353.6,204.8v-1.5h-5.7v1.5H353.6z M353.6,207.7v-1.6h-5.7v1.6H353.6z M351.3,213.6v-1.4h-3.1v1.4H351.3z
		 M351.3,216.4v-1.5h-3.1v1.5H351.3z M361.4,226v-1.7h-12.6v1.7H361.4z M361.4,229.2v-1.8h-12.6v1.8H361.4z M361.4,232.5v-1.9h-12.6
		v1.9H361.4z M356.1,210.6h13.5v7.3h-13.5V210.6z M362.4,204.8v-1.5h-6v1.5H362.4z M362.4,207.7v-1.6h-6l0,1.6H362.4z M361.7,213.6
		v-1.4h-3v1.4H361.7z M361.7,216.4v-1.5h-3v1.5H361.7z M367,213.6v-1.4h-3.1v1.4H367z M367,216.4v-1.5h-3.1v1.5H367z"/>
	<path class="st0" d="M372.7,276.6l-2.3,3.8c-5.3-2.3-8.5-8.2-9.7-14c-1.5,8-5.8,11.6-13.1,14.3l-0.6-1.2c4.7-2.4,9.2-5.3,10.6-13.8
		h-8.3v8.9h-3.1v-2.9h-3.3v4.1h-3.2v-27.8h9.6V264h2.4v-12h6.4v-7h3.4v7h6.4l0.1,12h3.9v1.7h-9.8
		C363.2,269.7,366.4,274.5,372.7,276.6z M342.8,258.3h3.3v-8.7h-3.3V258.3z M346.1,270v-10h-3.3v10H346.1z M357.8,264
		c0.2-1.4,0.2-2.9,0.2-4.6v-5.7h-3.1V264H357.8z M361.4,253.7v4.1c0,2.3-0.1,4.3-0.3,6.2h3.6v-10.3H361.4z"/>
	<path class="st0" d="M338.7,323.1l-0.8-1.1c2-1.7,3.7-3.8,5-6.1l2.9,1.6C344.1,319.4,341.1,321.9,338.7,323.1z M359.6,306.5h-21.2
		v-1.7h9.7c-0.7-1.1-1.5-2.1-2.2-3.1H341V292h15.3v9.8h-7.7c0.9,0.6,1.8,1.3,2.5,2l-1.3,1.1h9.8V306.5z M350.6,315v7
		c0,3.6-3.2,4.9-8.1,1.5l0.4-1.3c4,1.1,4.5,0.8,4.5-1.4V315h-6.2v-6.8h15.1v6.8H350.6z M344.1,296h9.2v-2.3h-9.2V296z M344.1,300.1
		h9.2v-2.4h-9.2V300.1z M344.3,313.5h9v-3.6h-9V313.5z M355.8,322.8c-1-1.8-2.6-4.1-4.1-6.1l0.9-1c2.2,1.4,4.2,3.1,5.8,4.8
		L355.8,322.8z M372,311.8c-3,5.5-9.7,11.4-15.8,13.6l-0.8-1.2c5.1-2.9,11-9.1,13.2-14.3L372,311.8z M367.9,299.9l3.2,1.9
		c-2.9,4.3-8.1,8.7-12.5,11l-0.8-1.1C361.5,309,365.7,304.2,367.9,299.9z M359,302.2l-0.8-1.1c3.4-2.6,7-7.1,8.6-10.5l3.3,1.8
		C367.6,296,363.6,299.7,359,302.2z"/>
	<path class="st0" d="M345.4,345.7v24.8h-3.2v-19.8c-1.1,1.5-2.4,2.9-3.9,4.3l-0.9-1c4-5,6.8-13,7.8-18.5l3.8,0.9
		C348,339.6,347,342.7,345.4,345.7z M372.6,365.1l-2.5,3c-2.6-2-4.3-5.3-5.9-11.3c-0.6,0.3-1.3,0.5-2,0.7c1.1,3.2,1.3,6.8,0.8,9.4
		c-0.7,4-4.3,5.6-9.3,0.9l0.6-1.2c4.1,1.6,5.2,1.6,5.6-1.2c0.2-1.1,0.2-2.4,0.2-3.8c-3.5,2.6-8.1,4.4-13,5.4l-0.4-1.3
		c5-1.5,9.8-4.3,13-7.4c-0.1-0.5-0.2-0.9-0.3-1.4c-3.1,2.4-7.6,4.5-12,5.5l-0.5-1.4c4.1-1.2,8.6-3.9,11.5-6.7
		c-0.2-0.3-0.3-0.7-0.5-1c-2.9,1.9-6.7,3.6-10.4,4.4l-0.4-1.2c4-1.4,7.2-3.5,9.3-5.6h-7v-4.8c-0.6,0.4-1.1,0.8-1.7,1.2l-0.7-1
		c4-3.6,5.6-6.8,7.3-11.1l3.6,1.2c-0.5,0.9-1,1.7-1.5,2.4h4.6l0.8-0.6l3.3,1.7c-0.9,1.2-2.1,2.5-3.3,3.5h8.4v7.3h-9.3
		c-0.5,0.5-1.1,1-1.8,1.5c1.2,1.1,2.1,2.4,2.7,3.9c2.2-1.4,3.6-2.6,5.3-4.4l2.4,2.2c-1.4,0.9-2.7,1.6-4,2.2
		C368,361.7,370.2,363.5,372.6,365.1z M352.4,343.6h7c0.7-1.1,1.1-2.2,1.4-3h-5.7C354.3,341.7,353.4,342.7,352.4,343.6z
		 M352.7,349.2h5.5v-3.9h-5.5V349.2z M366.9,345.3h-5.6v3.9h5.6V345.3z"/>
</g>
</svg>
